<svg width="152" height="25" viewBox="0 0 152 25" fill="none" xmlns="http://www.w3.org/2000/svg">
<g clip-path="url(#clip0_17_50)">
<path d="M44.89 20.61H47.77V21.02H45.34V22.38H47.51V22.79H45.34V24.19H47.8V24.6H44.89V20.61Z" fill="white"/>
<path d="M49 24.02L49.28 23.69C49.4599 23.8693 49.6737 24.0112 49.9089 24.1073C50.144 24.2034 50.396 24.2519 50.65 24.25C51.18 24.25 51.53 23.97 51.53 23.57C51.53 23.2 51.34 22.99 50.53 22.81C49.72 22.63 49.19 22.32 49.19 21.66C49.2011 21.5012 49.2443 21.3462 49.3169 21.2045C49.3895 21.0628 49.49 20.9373 49.6124 20.8354C49.7348 20.7336 49.8765 20.6576 50.029 20.612C50.1816 20.5663 50.3418 20.5521 50.5 20.57C51.0109 20.5567 51.5089 20.731 51.9 21.06L51.64 21.41C51.3207 21.1333 50.9125 20.9807 50.49 20.98C49.97 20.98 49.64 21.26 49.64 21.62C49.64 22 49.84 22.21 50.72 22.4C51.6 22.59 52.02 22.92 52.02 23.53C52.02 24.21 51.45 24.65 50.66 24.65C50.0459 24.663 49.4508 24.4372 49 24.02Z" fill="white"/>
<path d="M54.45 21.03H53.12V20.61H56.25V21.03H54.91V24.6H54.45V21.03Z" fill="white"/>
<path d="M56.68 24H57.21V24.6H56.68V24Z" fill="white"/>
<path d="M61.05 20.61H61.5V24.18H63.74V24.6H61.05V20.61Z" fill="white"/>
<path d="M64.63 22.62C64.622 22.3523 64.6678 22.0858 64.7647 21.8362C64.8616 21.5866 65.0076 21.359 65.1941 21.1668C65.3807 20.9747 65.6039 20.822 65.8505 20.7178C66.0972 20.6135 66.3622 20.5599 66.63 20.56C66.8969 20.5599 67.1611 20.6133 67.4071 20.7169C67.6531 20.8205 67.8758 20.9723 68.0622 21.1633C68.2486 21.3544 68.3948 21.5808 68.4923 21.8293C68.5899 22.0777 68.6367 22.3432 68.63 22.61C68.6394 22.8785 68.5946 23.1461 68.4983 23.3969C68.402 23.6477 68.2562 23.8765 68.0695 24.0697C67.8829 24.2629 67.6592 24.4165 67.4119 24.5213C67.1646 24.6262 66.8986 24.6802 66.63 24.68C66.3622 24.6801 66.0972 24.6265 65.8505 24.5222C65.6039 24.418 65.3807 24.2653 65.1941 24.0732C65.0076 23.881 64.8616 23.6534 64.7647 23.4038C64.6678 23.1542 64.622 22.8876 64.63 22.62ZM68.22 22.62C68.228 22.4084 68.1935 22.1973 68.1183 21.9992C68.0431 21.8012 67.9289 21.6204 67.7825 21.4674C67.636 21.3144 67.4603 21.1924 67.2657 21.1087C67.0712 21.0249 66.8618 20.9812 66.65 20.98C66.4395 20.9812 66.2314 21.0247 66.0381 21.1079C65.8448 21.1911 65.6701 21.3124 65.5246 21.4644C65.3791 21.6165 65.2656 21.7963 65.1909 21.9931C65.1163 22.1899 65.0819 22.3997 65.09 22.61C65.082 22.8221 65.1165 23.0337 65.1916 23.2323C65.2666 23.4308 65.3807 23.6124 65.527 23.7661C65.6733 23.9199 65.8489 24.0428 66.0435 24.1277C66.2381 24.2125 66.4477 24.2575 66.66 24.26C66.8718 24.2603 67.0814 24.2174 67.2761 24.1341C67.4707 24.0507 67.6464 23.9286 67.7924 23.7752C67.9383 23.6217 68.0515 23.4402 68.125 23.2416C68.1985 23.043 68.2309 22.8315 68.22 22.62Z" fill="white"/>
<path d="M70.21 20.61H70.63L73.14 23.81V20.61H73.58V24.61H73.22L70.65 21.34V24.61H70.21V20.61Z" fill="white"/>
<path d="M75.45 20.61H76.83C77.1026 20.5936 77.3756 20.6332 77.6323 20.7264C77.8889 20.8195 78.1238 20.9642 78.3224 21.1516C78.5211 21.339 78.6792 21.565 78.7871 21.8159C78.8951 22.0667 78.9505 22.3369 78.95 22.61C78.9505 22.883 78.8951 23.1533 78.7871 23.4041C78.6792 23.6549 78.5211 23.881 78.3224 24.0684C78.1238 24.2558 77.8889 24.4005 77.6323 24.4936C77.3756 24.5868 77.1026 24.6264 76.83 24.61H75.45V20.61ZM75.9 21.03V24.18H76.83C77.0435 24.1952 77.2577 24.166 77.4594 24.0943C77.661 24.0226 77.8456 23.91 78.0015 23.7634C78.1575 23.6169 78.2814 23.4396 78.3654 23.2428C78.4495 23.046 78.4919 22.834 78.49 22.62C78.4933 22.4052 78.4519 22.192 78.3685 21.994C78.285 21.796 78.1613 21.6176 78.0052 21.47C77.8492 21.3223 77.6641 21.2088 77.4618 21.1365C77.2594 21.0642 77.0443 21.0347 76.83 21.05L75.9 21.03Z" fill="white"/>
<path d="M80.3 22.62C80.292 22.3523 80.3378 22.0858 80.4347 21.8362C80.5316 21.5866 80.6776 21.359 80.8641 21.1668C81.0507 20.9747 81.2739 20.822 81.5205 20.7178C81.7672 20.6135 82.0322 20.5599 82.3 20.56C82.5669 20.5599 82.8311 20.6133 83.0771 20.7169C83.3231 20.8205 83.5458 20.9723 83.7322 21.1633C83.9186 21.3544 84.0648 21.5808 84.1624 21.8293C84.2599 22.0777 84.3067 22.3432 84.3 22.61C84.3094 22.8785 84.2646 23.1461 84.1683 23.3969C84.072 23.6477 83.9262 23.8765 83.7395 24.0697C83.5529 24.2629 83.3292 24.4165 83.0819 24.5213C82.8346 24.6262 82.5686 24.6802 82.3 24.68C82.0322 24.6801 81.7672 24.6265 81.5205 24.5222C81.2739 24.418 81.0507 24.2653 80.8641 24.0732C80.6776 23.881 80.5316 23.6534 80.4347 23.4038C80.3378 23.1542 80.292 22.8876 80.3 22.62ZM83.9 22.62C83.9081 22.4075 83.8732 22.1956 83.7974 21.9969C83.7216 21.7982 83.6065 21.6169 83.459 21.4638C83.3115 21.3106 83.1345 21.1889 82.9388 21.1057C82.7431 21.0226 82.5326 20.9798 82.32 20.98C82.1095 20.9812 81.9014 21.0247 81.7081 21.1079C81.5148 21.1911 81.3401 21.3124 81.1946 21.4644C81.0491 21.6165 80.9356 21.7963 80.8609 21.9931C80.7863 22.1899 80.752 22.3997 80.76 22.61C80.752 22.823 80.7868 23.0354 80.8625 23.2346C80.9381 23.4338 81.0531 23.6158 81.2005 23.7697C81.3479 23.9236 81.5247 24.0463 81.7204 24.1306C81.9162 24.2148 82.1269 24.2588 82.34 24.26C82.5514 24.2589 82.7603 24.2151 82.9543 24.1312C83.1484 24.0474 83.3234 23.9252 83.4691 23.7721C83.6148 23.6189 83.728 23.438 83.8021 23.24C83.8761 23.042 83.9094 22.8311 83.9 22.62Z" fill="white"/>
<path d="M85.88 20.61H86.3L88.82 23.81V20.61H89.25V24.61H88.9L86.32 21.34V24.61H85.88V20.61Z" fill="white"/>
<path d="M93.68 21.05L92.93 21.28L92.82 20.92L93.82 20.58H94.15V24.58H93.7L93.68 21.05Z" fill="white"/>
<path d="M95.74 23.53C95.7472 23.2962 95.8315 23.0713 95.9798 22.8904C96.1281 22.7096 96.3321 22.5828 96.56 22.53C96.3662 22.4646 96.197 22.3413 96.0754 22.1768C95.9538 22.0123 95.8856 21.8145 95.88 21.61C95.9544 21.3054 96.1289 21.0347 96.3755 20.8411C96.622 20.6475 96.9265 20.5422 97.24 20.5422C97.5535 20.5422 97.8579 20.6475 98.1045 20.8411C98.3511 21.0347 98.5256 21.3054 98.6 21.61C98.5944 21.8145 98.5261 22.0123 98.4045 22.1768C98.283 22.3413 98.1138 22.4646 97.92 22.53C98.1463 22.5858 98.3484 22.7134 98.4962 22.8937C98.644 23.0739 98.7295 23.2971 98.74 23.53C98.74 24.21 98.09 24.66 97.24 24.66C96.39 24.66 95.74 24.19 95.74 23.53ZM98.28 23.53C98.28 23.09 97.82 22.78 97.28 22.78C96.74 22.78 96.28 23.09 96.28 23.53C96.28 23.92 96.66 24.27 97.28 24.27C97.9 24.27 98.28 23.92 98.28 23.52V23.53ZM98.15 21.66C98.15 21.26 97.76 20.97 97.24 20.97C96.72 20.97 96.33 21.26 96.33 21.66C96.374 21.8687 96.4884 22.056 96.6541 22.1904C96.8198 22.3248 97.0267 22.3981 97.24 22.3981C97.4533 22.3981 97.6602 22.3248 97.8259 22.1904C97.9915 22.056 98.106 21.8687 98.15 21.66Z" fill="white"/>
<path d="M102.12 21.02H99.93V20.61H102.64V20.95L100.83 24.6H100.32L102.12 21.02Z" fill="white"/>
<path d="M103.75 22.62C103.703 22.3728 103.711 22.1183 103.774 21.8747C103.837 21.631 103.952 21.4043 104.113 21.2105C104.273 21.0167 104.475 20.8607 104.702 20.7536C104.93 20.6466 105.178 20.5911 105.43 20.5911C105.682 20.5911 105.93 20.6466 106.158 20.7536C106.385 20.8607 106.587 21.0167 106.747 21.2105C106.908 21.4043 107.023 21.631 107.086 21.8747C107.149 22.1183 107.157 22.3728 107.11 22.62C107.143 22.8691 107.126 23.1224 107.059 23.3646C106.992 23.6068 106.876 23.8328 106.719 24.0291C106.562 24.2254 106.367 24.3878 106.145 24.5065C105.924 24.6253 105.68 24.6979 105.43 24.72C105.179 24.7007 104.934 24.6299 104.711 24.512C104.488 24.3942 104.292 24.2317 104.134 24.0348C103.976 23.8379 103.861 23.6107 103.795 23.3673C103.729 23.1239 103.714 22.8695 103.75 22.62ZM106.65 22.62C106.65 21.75 106.17 20.97 105.43 20.97C104.69 20.97 104.21 21.74 104.21 22.61C104.21 23.49 104.69 24.27 105.44 24.27C106.19 24.27 106.65 23.49 106.65 22.62Z" fill="white"/>
<path d="M8 7.14998C6.6187 7.51927 5.18769 7.66777 3.76 7.58998C3.76 9.08998 3.76 9.58998 3.76 10.34C3.70432 10.8948 3.78677 11.4548 4 11.97C4.19956 12.2203 4.4563 12.4191 4.74864 12.5496C5.04098 12.6801 5.36039 12.7386 5.68 12.72V12.9H0.07V12.72C0.619183 12.6909 1.14016 12.4676 1.54 12.09C1.78155 11.4805 1.87743 10.8231 1.82 10.17C1.82 9.51998 1.82 7.81998 1.82 6.53998V3.07998C1.89992 2.35933 1.79673 1.63016 1.52 0.959981C1.08112 0.627575 0.550223 0.438966 0 0.419981L0 0.249981C0.44 0.249981 3.71 0.249981 5 0.249981C6.28039 0.146226 7.56576 0.37711 8.73 0.919981C9.27143 1.21093 9.72328 1.644 10.0369 2.17261C10.3506 2.70122 10.5141 3.30534 10.51 3.91998C10.4862 4.65442 10.2306 5.36248 9.77968 5.94271C9.3288 6.52293 8.70581 6.94554 8 7.14998ZM6.73 0.809981C6.13656 0.557762 5.49419 0.441588 4.85 0.469981C4.56549 0.475662 4.28161 0.499041 4 0.539981C3.86105 0.97627 3.79351 1.43215 3.8 1.88998C3.8 3.51998 3.8 6.98998 3.8 7.33998C4.64961 7.38329 5.50062 7.28873 6.32 7.05998C6.99938 6.83292 7.58776 6.39346 7.9983 5.80646C8.40884 5.21946 8.61978 4.51603 8.6 3.79998C8.61037 3.17423 8.43929 2.55888 8.10744 2.02827C7.77559 1.49766 7.29717 1.07452 6.73 0.809981Z" fill="white"/>
<path d="M23.53 12.86H12.81V12.72C13.3504 12.6786 13.8579 12.4443 14.24 12.06C14.4899 11.4628 14.5994 10.8162 14.56 10.17C14.56 9.52 14.56 7.82 14.56 6.54V3.08C14.639 2.34956 14.5359 1.61091 14.26 0.93C13.9157 0.612828 13.4679 0.431578 13 0.42V0.25H22.67L23.86 3.14L23.68 3.22C22.9622 2.24866 22.0494 1.438 21 0.84C19.9998 0.55369 18.959 0.435415 17.92 0.49C17.475 0.485584 17.0303 0.515674 16.59 0.58C16.59 0.95 16.5 2.23 16.5 3.77C16.5 5.54 16.5 6.15 16.5 6.27C17.2392 6.28176 17.9782 6.23495 18.71 6.13C20.13 5.8 20.46 5.03 20.71 3.71H21V9.23H20.79C20.6119 8.49639 20.27 7.81263 19.79 7.23C19.3419 6.85263 18.7758 6.64391 18.19 6.64C17.49 6.64 17.34 6.64 16.6 6.64C16.6 6.96 16.6 7.64 16.6 8.34C16.6 9.04 16.6 9.97 16.6 10.43C16.555 11.0426 16.6473 11.6575 16.87 12.23C17.08 12.55 17.99 12.69 18.87 12.69C19.4517 12.6899 20.0329 12.6532 20.61 12.58C22.08 12.39 23.1 11.58 24.25 9.58H24.45L23.53 12.86Z" fill="white"/>
<path d="M38.91 1.51C38.7415 2.32883 38.6677 3.16431 38.69 4C38.69 5 38.6 6.41 38.6 8C38.6 9.33 38.6 11.42 38.6 12.78C38.6014 12.805 38.5978 12.8299 38.5894 12.8535C38.5811 12.8771 38.5682 12.8988 38.5515 12.9174C38.5348 12.9359 38.5146 12.951 38.492 12.9618C38.4694 12.9725 38.445 12.9787 38.42 12.98C38.2938 12.9518 38.183 12.8768 38.11 12.77C34.11 8.2 31.78 5.3 28.61 1.77V9.11C28.5469 10.0116 28.6348 10.9174 28.87 11.79C29.14 12.32 29.66 12.56 30.61 12.68V12.86H26.32V12.72C26.611 12.7086 26.896 12.6338 27.1551 12.5008C27.4142 12.3678 27.6411 12.1798 27.82 11.95C28.1706 11.0606 28.3143 10.1031 28.24 9.15C28.24 8.15 28.31 6.73 28.31 5.15C28.31 3.82 28.31 3.51 28.31 2.15C28.2817 1.67609 28.0713 1.23145 27.7228 0.909046C27.3743 0.58664 26.9147 0.411415 26.44 0.42V0.25H30L38.3 9.95V4C38.3459 3.21261 38.2887 2.42259 38.13 1.65C37.9 1 37.34 0.58 36.22 0.42V0.25H40.56V0.42C40.2089 0.422065 39.866 0.526211 39.573 0.719747C39.28 0.913282 39.0497 1.18785 38.91 1.51Z" fill="white"/>
<path d="M51.37 12.86V12.72C51.9804 12.7108 52.564 12.4673 53 12.04C53.1075 11.5611 53.1546 11.0706 53.14 10.58C53.14 9.06 53.14 7.11 53.14 6.58H46.27V10.35C46.214 10.9065 46.2753 11.4686 46.45 12C46.6132 12.2066 46.8174 12.3772 47.0498 12.5011C47.2821 12.625 47.5375 12.6995 47.8 12.72V12.9H42.63V12.72C43.1711 12.674 43.6814 12.4487 44.08 12.08C44.2892 11.4662 44.3741 10.8169 44.33 10.17C44.33 9.52 44.33 7.82 44.33 6.54V3.08C44.4005 2.40218 44.3114 1.71727 44.07 1.08C43.7093 0.688717 43.2112 0.4522 42.68 0.42V0.25H47.9V0.42C47.24 0.51 46.34 0.74 46.31 1.82C46.26 3.45 46.31 5.82 46.31 6.27H53.23C53.23 4.77 53.23 3.94 53.23 2.42C53.2479 1.98165 53.1693 1.54472 53 1.14C52.8274 0.892252 52.5918 0.694961 52.3177 0.568418C52.0435 0.441875 51.7405 0.390646 51.44 0.42V0.25H56.72V0.42C56.44 0.430385 56.1662 0.505273 55.9199 0.638831C55.6736 0.77239 55.4615 0.961011 55.3 1.19C55.1338 1.81898 55.073 2.47114 55.12 3.12V6.12C55.12 7.83 55.12 8.78 55.12 10.48C55.0751 10.9922 55.1295 11.5083 55.28 12C55.4543 12.2159 55.6755 12.3892 55.9267 12.507C56.1779 12.6248 56.4526 12.684 56.73 12.68V12.86H51.37Z" fill="white"/>
<path d="M66.3 12.86V12.72C66.46 12.72 67.53 12.58 67.53 11.92C67.2269 10.5851 66.8052 9.27991 66.27 8.02H61.61C61.26 8.9 60.92 9.69 60.61 10.51C60.42 10.932 60.2953 11.3805 60.24 11.84C60.24 12.46 61.08 12.61 61.69 12.68V12.86H57.93V12.72C58.3678 12.6691 58.7812 12.4919 59.12 12.21C59.5648 11.6179 59.928 10.9688 60.2 10.28C61.2 8.07 62.71 4.52 63.81 1.89L63.64 1.51C64.2971 1.17801 64.8351 0.650464 65.18 0H65.32C66.77 3.89 67.9 6.89 69 9.85C69.2111 10.4332 69.4549 11.0041 69.73 11.56C69.8903 11.8747 70.1312 12.1414 70.428 12.3329C70.7249 12.5243 71.0671 12.6337 71.42 12.65V12.86H66.3ZM64 2.24C63.73 2.87 62.86 4.91 61.75 7.66H66.12C65.34 5.57 64.43 3.29 64 2.24Z" fill="white"/>
<path d="M83.91 12.86H72.66V12.72C73.2327 12.6782 73.7748 12.4459 74.2 12.06C74.4585 11.4649 74.5749 10.8178 74.54 10.17C74.54 9.52 74.54 7.82 74.54 6.54V3.1C74.6183 2.4221 74.529 1.73535 74.28 1.1C73.8815 0.701243 73.3524 0.459775 72.79 0.42V0.25H78.37V0.42C77.74 0.51 76.57 0.7 76.53 1.96C76.53 3.59 76.53 4.54 76.53 6.27C76.53 8 76.53 8.71 76.53 10.27C76.4806 10.886 76.5589 11.5056 76.76 12.09C77.4069 12.4572 78.1482 12.6242 78.89 12.57C79.7506 12.5741 80.6091 12.4836 81.45 12.3C83.31 11.8 83.83 10.57 84.45 9.17H84.63L83.91 12.86Z" fill="white"/>
<path d="M85.28 12.86V12.72C85.8297 12.6761 86.3448 12.4345 86.73 12.04C86.9649 11.4324 87.0572 10.7789 87 10.13C87 9.48 87 7.78 87 6.5V3.08C87.0705 2.40218 86.9814 1.71727 86.74 1.08C86.3732 0.685772 85.8677 0.449183 85.33 0.42V0.25H90.57V0.42C90.2877 0.421864 90.0099 0.490847 89.7595 0.621254C89.5091 0.751662 89.2933 0.939753 89.13 1.17C88.9663 1.69344 88.9018 2.24288 88.94 2.79C88.94 3.98 88.94 4.99 88.94 6.43V10.43C88.884 10.9865 88.9453 11.5486 89.12 12.08C89.5193 12.4719 90.0508 12.7002 90.61 12.72V12.9L85.28 12.86Z" fill="white"/>
<path d="M104.87 7.52997C104.721 7.98406 104.666 8.46398 104.71 8.93998V11.49C103.192 12.3924 101.474 12.9043 99.71 12.98C95.27 12.98 92.64 10.53 92.64 6.53998C92.6467 5.66037 92.8268 4.79073 93.17 3.98081C93.5132 3.1709 94.0127 2.43661 94.64 1.81998C95.3124 1.20215 96.1003 0.723311 96.9584 0.410974C97.8165 0.098636 98.7278 -0.0410395 99.64 -2.48472e-05C101.185 -0.0334722 102.707 0.372255 104.03 1.16998C104.25 0.95632 104.445 0.718089 104.61 0.459975H104.77V4.27997H104.56C104.325 3.29243 103.843 2.38066 103.16 1.62998C102.719 1.19816 102.197 0.858234 101.623 0.62992C101.05 0.401605 100.437 0.289454 99.82 0.299975C96.72 0.299975 94.82 3.29997 94.82 6.56997C94.82 10.21 96.62 12.7 99.74 12.7C100.259 12.7379 100.779 12.6463 101.254 12.4333C101.729 12.2204 102.143 11.8928 102.46 11.48C102.684 10.8382 102.779 10.1586 102.74 9.47998C102.831 8.81366 102.682 8.13684 102.32 7.56997C101.936 7.21021 101.426 7.0162 100.9 7.02997V6.84998H106V7.02997C105.573 7.04294 105.167 7.22235 104.87 7.52997Z" fill="white"/>
<path d="M114.91 12.98C114.054 13.0001 113.203 12.848 112.407 12.5328C111.611 12.2175 110.886 11.7455 110.276 11.1448C109.666 10.5441 109.183 9.82696 108.856 9.03592C108.528 8.24488 108.363 7.39609 108.37 6.53998C108.37 2.53998 111.47 0.0699758 115.13 0.0699758C115.976 0.0464027 116.818 0.195981 117.604 0.509528C118.39 0.823074 119.104 1.29397 119.701 1.89331C120.298 2.49265 120.767 3.20778 121.078 3.9948C121.389 4.78182 121.536 5.62411 121.51 6.46998C121.511 7.33289 121.341 8.18745 121.009 8.98382C120.676 9.78018 120.189 10.5024 119.575 11.1084C118.96 11.7144 118.231 12.1919 117.431 12.5133C116.63 12.8346 115.773 12.9933 114.91 12.98ZM114.91 0.369976C111.91 0.369976 110.53 3.57998 110.53 6.58998C110.54 9.71998 112 12.72 115 12.72C118 12.72 119.36 9.44998 119.36 6.51998C119.36 3.58998 117.9 0.369976 114.92 0.369976H114.91Z" fill="white"/>
<path d="M135.37 1.51C135.197 2.32824 135.12 3.16388 135.14 4C135.14 5 135.06 6.41 135.06 8C135.06 9.33 135.06 11.42 135.06 12.78C135.063 12.8044 135.06 12.8292 135.053 12.8527C135.046 12.8762 135.034 12.8981 135.018 12.9168C135.002 12.9355 134.983 12.9508 134.961 12.9617C134.939 12.9726 134.915 12.9788 134.89 12.98C134.762 12.9506 134.648 12.8761 134.57 12.77C130.57 8.2 128.25 5.3 125.08 1.77V9.11C125.012 10.0116 125.1 10.9183 125.34 11.79C125.6 12.32 126.13 12.56 127.07 12.68V12.86H122.76V12.72C123.053 12.71 123.34 12.6359 123.601 12.5029C123.862 12.3698 124.09 12.1811 124.27 11.95C124.621 11.0606 124.764 10.1031 124.69 9.15C124.69 8.15 124.76 6.73 124.76 5.15C124.76 3.82 124.76 3.51 124.76 2.15C124.732 1.67784 124.523 1.23469 124.176 0.912545C123.83 0.590403 123.373 0.414015 122.9 0.42V0.25H126.45L134.76 9.95V4C134.809 3.21212 134.748 2.42131 134.58 1.65C134.35 1 133.79 0.58 132.67 0.42V0.25H137V0.42C136.652 0.425907 136.314 0.531847 136.025 0.725149C135.736 0.918452 135.508 1.19093 135.37 1.51Z" fill="white"/>
<path d="M139.12 3.51997V3.34997C139.95 3.18997 140.42 2.85997 140.42 2.11997C140.421 1.94399 140.383 1.76995 140.31 1.60997C140.11 1.7477 139.873 1.82098 139.63 1.81997C139.535 1.81998 139.44 1.80103 139.352 1.76422C139.264 1.72742 139.184 1.67349 139.117 1.60556C139.05 1.53764 138.997 1.45709 138.962 1.36857C138.926 1.28006 138.909 1.18536 138.91 1.08997C138.935 0.826131 139.064 0.583134 139.269 0.414376C139.473 0.245618 139.736 0.164904 140 0.189971C140.182 0.192513 140.363 0.231499 140.53 0.30464C140.697 0.37778 140.848 0.4836 140.974 0.615884C141.1 0.748168 141.198 0.904248 141.262 1.07496C141.327 1.24567 141.357 1.42757 141.35 1.60997C141.339 1.88549 141.272 2.15586 141.152 2.40409C141.032 2.65231 140.862 2.87304 140.652 3.0524C140.443 3.23177 140.199 3.36589 139.935 3.44635C139.671 3.52682 139.394 3.55188 139.12 3.51997Z" fill="white"/>
<path d="M147.43 13.02C146.262 13.066 145.104 12.7929 144.08 12.23C144.01 12.23 143.73 12.58 143.54 12.84H143.38V9.36H143.55C143.933 10.5429 144.7 11.5637 145.73 12.26C146.265 12.5431 146.855 12.7069 147.46 12.74C147.828 12.7794 148.2 12.7407 148.553 12.6263C148.905 12.5119 149.229 12.3244 149.503 12.0761C149.778 11.8279 149.997 11.5244 150.147 11.1856C150.296 10.8468 150.372 10.4803 150.37 10.11C150.37 8.8 149.47 8.22 148.37 7.8C147.27 7.38 146.85 7.29 145.8 6.89C145.133 6.65822 144.55 6.2328 144.126 5.66813C143.702 5.10345 143.456 4.42517 143.42 3.72C143.42 1.22 145.42 0.0600012 147.62 0.0600012C148.685 -0.000563979 149.741 0.294943 150.62 0.900001C150.835 0.725052 151.014 0.511345 151.15 0.270001H151.34V3.5H151.15C150.57 1.95 149.41 0.330001 147.59 0.330001C147.254 0.304675 146.916 0.350259 146.598 0.463803C146.28 0.577348 145.99 0.756324 145.746 0.989149C145.502 1.22197 145.309 1.50346 145.181 1.8154C145.052 2.12734 144.991 2.46277 145 2.8C145 4.03 145.85 4.8 147 5.19C147.95 5.55 148.59 5.73 149.5 6.06C150.228 6.26336 150.869 6.70246 151.321 7.30861C151.774 7.91477 152.012 8.65377 152 9.41C152 11.65 150.09 13.02 147.43 13.02Z" fill="white"/>
</g>
<defs>
<clipPath id="clip0_17_50">
<rect width="152" height="24.67" fill="white"/>
</clipPath>
</defs>
</svg>
